<?xml version="1.0" standalone="no"?>
<!DOCTYPE svg PUBLIC "-//W3C//DTD SVG 20010904//EN"
 "http://www.w3.org/TR/2001/REC-SVG-20010904/DTD/svg10.dtd">
<svg version="1.0" xmlns="http://www.w3.org/2000/svg"
 width="225.000000pt" height="225.000000pt" viewBox="0 0 225.000000 225.000000"
 preserveAspectRatio="xMidYMid meet">

<g transform="translate(0.000000,225.000000) scale(0.100000,-0.100000)"
fill="#000000" stroke="none">
<path d="M1092 2228 c-16 -16 -16 -150 0 -166 7 -7 21 -12 33 -12 36 0 45 20
45 95 0 75 -9 95 -45 95 -12 0 -26 -5 -33 -12z"/>
<path d="M406 2094 c-25 -25 -19 -43 38 -113 l53 -67 -49 -53 c-133 -145 -217
-328 -243 -528 -7 -52 -7 -53 -41 -53 -33 0 -74 -28 -74 -50 0 -22 41 -50 74
-50 34 0 34 -1 41 -52 40 -310 220 -573 488 -714 74 -39 103 -38 113 2 7 25
-18 64 -40 64 -17 0 -133 76 -189 123 -70 59 -150 165 -197 261 -148 300 -105
644 112 905 l61 75 53 -60 c30 -32 54 -64 54 -69 0 -6 -20 -35 -45 -65 -76
-91 -145 -255 -145 -342 0 -25 -3 -28 -36 -28 -52 0 -74 -15 -74 -51 0 -33 27
-49 81 -49 25 0 29 -4 29 -28 0 -47 29 -144 65 -217 57 -117 159 -223 277
-285 56 -30 60 -31 84 -15 41 27 28 53 -52 102 -129 78 -233 213 -269 348 -19
75 -19 214 0 288 8 31 28 83 44 115 28 54 95 142 109 142 7 0 102 -114 102
-123 0 -3 -16 -29 -35 -58 -20 -29 -43 -78 -52 -111 -16 -57 -17 -58 -53 -58
-39 0 -70 -23 -70 -53 0 -23 39 -47 76 -47 32 0 44 -13 44 -49 0 -36 62 -140
109 -184 56 -52 123 -89 146 -81 21 8 36 39 29 58 -3 8 -25 26 -49 40 -50 30
-96 80 -127 139 -19 34 -23 58 -23 127 0 73 4 92 27 137 15 28 32 54 37 58 6
3 34 -24 64 -60 53 -64 54 -66 44 -104 -22 -82 41 -161 128 -161 117 0 175
134 96 222 -24 27 -36 32 -87 36 l-59 4 -285 346 c-157 189 -297 358 -312 373
-29 33 -49 36 -72 13z m754 -844 c15 -28 -4 -60 -35 -60 -31 0 -50 32 -35 60
6 12 21 20 35 20 14 0 29 -8 35 -20z"/>
<path d="M1455 2064 c-29 -29 -14 -56 53 -94 266 -150 424 -392 448 -684 8
-101 12 -106 103 -106 48 0 65 4 81 20 11 11 20 25 20 30 0 22 -41 50 -74 50
-34 0 -34 1 -41 53 -40 309 -226 582 -486 713 -79 39 -82 40 -104 18z"/>
<path d="M1092 1968 c-19 -19 -16 -153 4 -172 42 -43 74 -6 74 88 0 76 -9 96
-45 96 -12 0 -26 -5 -33 -12z"/>
<path d="M1346 1821 c-28 -31 -16 -51 54 -93 172 -104 290 -291 290 -460 0
-67 23 -88 94 -88 79 0 106 13 106 49 0 36 -22 51 -74 51 -33 0 -36 3 -36 28
0 47 -29 144 -65 217 -58 120 -162 226 -280 289 -60 31 -67 32 -89 7z"/>
<path d="M1096 1704 c-12 -11 -16 -35 -16 -88 0 -76 9 -96 45 -96 36 0 45 20
45 96 0 74 -13 104 -45 104 -7 0 -21 -7 -29 -16z"/>
<path d="M1252 1593 c-18 -7 -33 -39 -26 -58 4 -8 20 -23 36 -31 86 -44 154
-143 165 -237 8 -74 23 -87 97 -87 67 0 106 18 106 49 0 28 -33 51 -72 51 -34
0 -36 2 -47 46 -26 102 -106 206 -193 250 -26 13 -49 24 -50 23 -2 0 -9 -3
-16 -6z"/>
<path d="M1217 1110 c-22 -25 -27 -42 -27 -83 1 -68 22 -113 107 -223 l71 -90
-124 -223 c-68 -123 -124 -232 -124 -243 0 -32 79 -128 105 -128 17 0 61 40
159 143 75 78 136 150 136 159 0 22 -27 48 -50 48 -11 0 -64 -48 -126 -115
-101 -108 -124 -128 -124 -106 0 7 196 367 207 381 3 3 12 -5 21 -16 9 -12 24
-24 33 -27 21 -7 59 19 59 41 0 9 -52 83 -114 164 -124 158 -146 193 -146 233
0 58 66 12 165 -118 80 -106 98 -116 115 -73 l9 21 0 -22 c2 -39 12 -55 27
-42 27 22 13 54 -73 167 -102 133 -153 174 -228 180 -48 4 -53 2 -78 -28z"/>
<path d="M2052 988 c-16 -16 -15 -49 3 -72 8 -11 15 -23 15 -27 0 -4 -84 -53
-187 -110 -198 -107 -223 -124 -223 -145 0 -12 133 -220 161 -253 11 -13 45
-12 184 4 45 6 41 3 -59 -40 -34 -15 -60 -33 -63 -44 -3 -10 -17 -21 -31 -24
-18 -4 -42 -26 -72 -66 -25 -33 -48 -60 -52 -61 -3 0 4 25 15 55 14 34 28 55
37 55 22 0 40 20 40 43 0 10 -50 74 -112 143 -111 124 -137 141 -166 112 -23
-23 -12 -51 46 -116 31 -35 67 -77 79 -92 l23 -28 -41 -107 -40 -108 28 -40
c36 -52 66 -72 90 -58 11 5 46 43 78 85 48 62 62 73 76 65 57 -30 118 10 106
70 -6 28 -4 30 81 66 101 44 112 51 112 77 0 22 -55 104 -75 111 -6 3 -45 1
-86 -4 -147 -17 -142 -18 -194 61 -25 39 -45 72 -45 74 0 3 92 54 204 115 139
76 205 118 209 131 8 30 -76 140 -106 140 -13 0 -28 -5 -35 -12z"/>
</g>
</svg>
